<?xml version="1.0" standalone="no"?>
<!DOCTYPE svg PUBLIC "-//W3C//DTD SVG 20010904//EN"
 "http://www.w3.org/TR/2001/REC-SVG-20010904/DTD/svg10.dtd">
<svg version="1.0" xmlns="http://www.w3.org/2000/svg"
 width="416.000000pt" height="416.000000pt" viewBox="0 0 416.000000 416.000000"
 preserveAspectRatio="xMidYMid meet">
<metadata>
Created by potrace 1.11, written by Peter Selinger 2001-2013
</metadata>
<g transform="translate(0.000000,416.000000) scale(0.100000,-0.100000)"
fill="#000000" stroke="none">
<path d="M506 3979 c-57 -9 -78 -24 -47 -34 22 -7 29 -25 10 -25 -5 0 -7 -5
-3 -12 4 -7 3 -8 -4 -4 -7 4 -12 14 -12 22 0 8 -5 14 -11 14 -5 0 -7 -4 -4
-10 3 -5 -1 -10 -10 -10 -11 0 -15 5 -12 15 4 8 2 17 -3 20 -6 4 -10 0 -10 -8
0 -8 -7 -17 -15 -21 -8 -3 -15 -1 -15 4 0 5 -9 2 -20 -7 -14 -12 -16 -20 -9
-29 6 -8 6 -14 0 -18 -5 -3 -11 0 -14 6 -2 7 -11 -2 -21 -20 -13 -25 -22 -32
-35 -27 -15 5 -19 1 -17 -20 0 -14 4 -25 9 -25 16 0 6 -18 -13 -23 -13 -3 -20
-14 -20 -29 0 -18 -2 -20 -10 -8 -9 13 -10 13 -10 0 0 -13 -2 -13 -9 -1 -6 9
-9 -9 -10 -53 0 -37 3 -65 7 -62 4 2 6 -11 4 -30 -3 -20 1 -63 8 -97 7 -34 13
-79 15 -99 1 -21 9 -46 16 -55 11 -14 12 -15 1 -9 -11 7 -12 4 -3 -13 7 -11
15 -21 20 -21 8 0 25 -57 22 -74 -1 -4 3 -13 8 -20 16 -19 115 -220 113 -228
-1 -5 2 -8 7 -8 5 0 13 -9 16 -21 6 -19 17 -37 68 -112 6 -11 19 -27 27 -37 8
-10 22 -28 30 -40 8 -13 25 -33 38 -46 13 -13 21 -24 18 -24 -3 0 10 -16 30
-35 19 -19 31 -35 27 -35 -4 0 9 -15 29 -34 20 -19 34 -36 31 -40 -3 -3 3 -9
13 -13 10 -4 30 -17 43 -30 20 -18 28 -20 40 -10 12 10 14 9 9 -4 -5 -12 -1
-15 18 -11 15 3 24 0 24 -8 0 -7 -7 -10 -15 -6 -12 4 -13 2 -4 -12 9 -14 8
-25 -4 -48 -15 -30 -32 -93 -29 -106 1 -5 -2 -8 -8 -8 -5 0 -10 -11 -10 -25 0
-23 -13 -31 -42 -26 -5 0 -9 -5 -10 -11 -2 -23 -5 -33 -12 -50 -4 -9 -5 -21
-2 -27 3 -5 1 -11 -6 -13 -7 -3 -9 -14 -4 -31 4 -17 11 -25 18 -21 7 4 8 3 4
-5 -4 -6 -12 -9 -17 -6 -5 4 -9 4 -9 2 0 -2 -4 -27 -10 -55 -5 -27 -14 -99
-20 -159 -16 -163 -19 -192 -25 -260 -9 -83 -9 -334 -1 -360 15 -46 15 -63 0
-63 -8 0 -14 -5 -14 -11 0 -6 7 -9 15 -6 26 10 29 -15 4 -34 l-24 -19 28 0
c22 0 27 -4 27 -25 0 -14 -5 -25 -11 -25 -5 0 -7 -5 -4 -10 4 -6 10 -8 15 -5
4 3 15 -12 23 -33 13 -31 13 -37 1 -40 -18 -4 -18 -10 1 -28 8 -9 20 -12 26
-8 8 4 9 3 5 -4 -4 -7 -2 -12 3 -12 6 0 11 -5 11 -12 0 -9 -3 -9 -12 0 -7 7
-16 12 -22 12 -5 0 4 -11 20 -25 16 -14 21 -23 12 -19 -10 3 -18 3 -18 0 0 -4
12 -11 27 -17 22 -8 25 -12 13 -21 -13 -8 -12 -9 1 -5 18 6 69 -40 69 -61 0
-7 5 -12 11 -12 6 0 8 -8 5 -17 -6 -20 7 -46 20 -41 5 1 10 -7 12 -20 2 -14
10 -22 23 -22 12 0 17 -4 13 -11 -4 -8 1 -9 16 -4 14 5 20 3 16 -3 -3 -6 11
-25 33 -44 69 -59 212 -120 227 -97 3 5 1 9 -3 9 -5 0 -10 12 -11 27 -1 14 1
23 5 19 5 -4 8 -11 8 -14 1 -4 6 -17 13 -29 8 -15 9 -23 2 -23 -5 0 -10 -4
-10 -10 0 -5 9 -10 20 -10 21 0 27 15 10 25 -15 9 -12 25 5 25 14 0 20 -17 16
-47 -2 -12 12 -11 42 2 9 4 24 5 32 1 17 -6 20 -26 4 -26 -5 0 -7 6 -3 12 6
10 5 10 -8 1 -8 -7 -18 -10 -21 -6 -4 3 -7 1 -7 -5 0 -12 5 -14 33 -16 6 -1
15 -5 19 -11 5 -6 14 -1 23 12 15 21 17 22 40 7 14 -9 21 -22 18 -30 -3 -8 0
-14 6 -14 6 0 11 7 11 16 0 26 30 -3 31 -30 0 -21 0 -21 9 2 10 22 36 32 27 9
-3 -8 8 -12 35 -13 22 0 42 -4 46 -10 4 -5 18 -9 32 -9 14 0 33 -3 42 -8 18
-8 92 -25 138 -32 14 -2 40 -8 59 -14 19 -6 37 -8 42 -6 4 3 13 0 21 -7 7 -7
29 -13 50 -14 20 -1 44 -5 55 -9 23 -10 29 -12 48 -14 8 0 15 -6 15 -12 0 -5
-5 -7 -11 -4 -18 12 -75 18 -64 7 6 -6 30 -13 54 -17 36 -6 43 -5 39 7 -4 10
3 15 28 16 40 3 74 -13 74 -33 0 -17 16 -20 25 -5 3 6 12 10 18 10 7 0 6 -4
-3 -10 -11 -8 -6 -10 21 -8 23 1 35 6 32 13 -2 7 2 12 10 12 8 0 14 -7 13 -16
-1 -18 34 -16 46 2 6 9 8 8 8 -1 0 -7 5 -10 10 -7 6 3 10 1 10 -5 0 -11 612
-8 660 4 14 4 56 11 95 16 38 6 74 15 79 20 4 4 14 7 20 4 6 -2 43 2 81 9 59
12 70 17 68 33 -1 14 5 19 24 21 16 0 21 -2 14 -7 -10 -5 -9 -9 3 -13 21 -8
86 3 86 15 0 6 -7 8 -15 4 -8 -3 -15 -1 -15 4 0 6 8 10 18 11 9 0 27 2 40 5
14 2 21 0 17 -6 -3 -5 -13 -10 -22 -10 -9 0 -14 -3 -10 -6 9 -10 47 6 47 21 0
17 29 28 44 17 16 -13 48 -23 42 -14 -3 5 4 21 16 38 11 16 17 21 14 11 -4
-11 -2 -17 5 -15 6 2 11 8 11 13 0 6 9 16 19 23 19 13 27 38 9 27 -6 -3 -10
-2 -10 3 0 5 9 12 20 15 11 3 20 10 20 17 0 6 -5 8 -12 4 -7 -4 -8 -3 -4 4 4
6 13 9 21 6 8 -4 12 -10 9 -15 -3 -5 0 -9 6 -9 18 0 0 42 -30 70 -45 41 -70
60 -81 60 -5 0 -7 -5 -3 -12 4 -7 3 -8 -5 -4 -8 5 -9 12 -2 20 7 9 0 23 -25
52 -19 21 -42 51 -51 67 -10 15 -21 27 -25 27 -4 0 -8 6 -8 14 0 8 -3 16 -7
18 -10 4 -153 217 -153 228 0 4 -6 13 -14 19 -8 7 -18 27 -21 44 -4 18 -15 41
-24 52 -15 18 -15 19 1 7 15 -12 17 -11 15 7 -1 15 -8 21 -24 21 -12 0 -27 8
-32 19 -12 21 -5 32 15 24 8 -3 14 1 14 11 0 21 -32 86 -42 86 -5 0 -7 4 -3 9
3 5 -1 16 -9 24 -8 8 -18 26 -21 40 -4 15 -13 31 -21 38 -8 6 -14 22 -14 34 0
12 -7 28 -15 35 -9 7 -13 15 -10 18 3 3 1 10 -3 16 -5 6 -23 48 -41 93 -18 45
-39 87 -47 94 -8 6 -14 18 -14 25 0 8 -5 14 -11 14 -6 0 -8 7 -5 16 3 8 2 12
-4 9 -9 -6 -23 48 -28 108 -1 10 -5 16 -9 14 -5 -3 -9 8 -10 24 -1 16 -9 42
-17 57 -8 15 -22 44 -31 65 -9 20 -20 37 -24 37 -5 0 -12 7 -15 16 -4 10 -2
13 7 9 6 -4 5 -1 -3 7 -9 7 -14 21 -12 32 2 10 0 16 -6 12 -5 -3 -7 5 -5 17 3
14 -2 29 -11 36 -9 8 -16 22 -16 32 0 10 -4 21 -10 24 -5 3 -10 14 -10 24 0
10 -11 35 -25 56 -15 20 -24 40 -21 43 3 2 -3 17 -13 31 -9 14 -23 41 -31 59
-7 19 -18 39 -24 45 -23 24 -45 81 -34 88 7 4 7 9 -1 13 -6 4 -11 4 -11 0 0
-4 -7 1 -15 12 -8 10 -14 28 -14 39 0 11 3 14 6 8 2 -7 9 -13 15 -13 17 0 -13
30 -31 31 -10 0 -11 2 -3 6 17 7 15 20 -4 27 -8 3 -12 2 -9 -4 3 -6 2 -10 -3
-10 -5 0 -12 9 -15 20 -3 11 -1 18 3 15 5 -3 11 -1 15 5 3 5 -9 19 -27 30 -26
16 -29 20 -13 20 19 1 19 2 -2 17 -13 8 -23 20 -23 25 0 5 -6 16 -14 23 -10
11 -16 11 -25 2 -9 -9 -11 -8 -5 7 6 15 4 17 -6 11 -9 -6 -12 -4 -8 6 8 19
-14 39 -43 39 -5 0 -7 5 -4 10 4 6 12 7 18 3 7 -4 6 0 -2 10 -7 9 -17 17 -22
17 -14 0 -48 38 -41 45 3 3 -3 8 -15 11 -12 3 -24 15 -26 26 -3 11 -10 17 -16
13 -6 -3 -11 -1 -11 5 0 13 -35 43 -82 72 -24 15 -28 15 -28 3 0 -19 -11 -19
-36 1 -18 15 -18 15 4 9 13 -4 22 -2 22 5 0 6 -4 9 -8 6 -5 -3 -16 4 -25 15
-9 10 -22 19 -28 19 -8 0 -8 -4 0 -14 8 -10 9 -16 1 -21 -5 -3 -10 1 -10 10 0
9 -9 19 -21 22 -14 4 -17 8 -8 13 7 5 -5 8 -26 8 -22 0 -33 -3 -25 -8 8 -5 8
-10 2 -14 -6 -3 -15 6 -20 21 -8 22 -11 24 -12 8 l-1 -20 -15 20 c-8 11 -17
20 -19 20 -2 0 -11 -9 -19 -20 -10 -13 -15 -15 -16 -6 0 7 -6 11 -14 8 -8 -3
-16 -1 -19 6 -2 8 -12 6 -31 -6 -15 -10 -48 -20 -74 -23 -53 -5 -142 -26 -187
-45 -16 -7 -32 -13 -35 -14 -46 -12 -169 -89 -224 -140 -15 -14 -31 -25 -36
-25 -5 0 -14 -9 -21 -21 -8 -15 -18 -20 -35 -16 -13 2 -24 0 -24 -4 0 -5 6 -9
13 -10 6 0 2 -5 -10 -11 -23 -11 -39 -42 -34 -67 2 -9 -3 -12 -13 -8 -14 5
-15 3 -6 -13 6 -11 15 -20 21 -20 6 0 7 -5 4 -11 -4 -6 -1 -9 7 -7 7 2 13 -1
13 -7 0 -5 -3 -9 -7 -8 -13 5 -9 -18 6 -33 28 -28 119 -24 102 5 -4 6 -3 11 3
11 6 0 7 8 4 17 -5 13 -1 12 17 -5 18 -16 27 -19 37 -11 7 6 13 8 13 3 0 -5 6
-2 13 7 21 27 92 45 103 27 3 -4 12 -8 21 -8 14 0 14 2 -1 19 -14 15 -15 21
-4 27 7 5 21 7 30 6 18 -3 108 44 108 57 0 4 8 7 18 8 9 0 50 7 91 15 40 9 82
13 92 11 11 -3 26 0 34 7 12 10 15 10 15 -3 0 -8 7 -18 16 -21 12 -4 14 -1 9
14 -5 15 -3 18 9 14 9 -3 14 -9 12 -13 -10 -15 13 -32 50 -38 21 -3 45 -14 52
-24 7 -10 19 -16 26 -13 8 3 17 1 21 -5 10 -18 25 -13 19 7 -5 16 -5 16 6 0 6
-10 17 -18 24 -18 14 0 156 -138 154 -149 -1 -3 28 -51 64 -106 90 -137 147
-248 198 -390 23 -66 53 -144 66 -174 13 -29 24 -59 24 -65 0 -7 17 -48 39
-91 21 -44 51 -120 66 -170 66 -222 80 -256 207 -512 49 -101 103 -196 119
-213 17 -16 25 -30 19 -30 -14 0 12 -46 39 -70 9 -8 19 -19 22 -25 2 -5 8 -9
12 -7 5 1 6 -2 3 -7 -4 -5 1 -16 9 -25 9 -8 15 -18 14 -21 -1 -8 84 -141 110
-172 11 -13 24 -23 29 -23 6 0 8 -9 5 -20 -4 -14 -14 -20 -32 -20 -15 0 -31
-3 -34 -7 -7 -7 -67 -10 -227 -13 -60 -1 -98 -6 -102 -13 -6 -9 -10 -9 -17 2
-7 10 -13 11 -31 1 -13 -7 -25 -8 -29 -3 -10 15 -174 10 -179 -5 -2 -6 -8 -10
-13 -6 -5 3 -9 0 -9 -5 0 -6 7 -11 16 -11 8 0 13 -4 10 -9 -3 -5 5 -12 19 -15
14 -4 25 -11 25 -16 0 -14 -6 -13 -50 12 -26 15 -38 29 -37 42 1 10 -4 21 -11
23 -13 5 -12 -30 1 -43 12 -12 8 -26 -5 -18 -8 5 -8 2 1 -10 12 -15 12 -17 0
-14 -8 2 -17 11 -21 20 -4 9 -16 22 -27 28 -19 10 -20 9 -11 -14 6 -16 6 -27
0 -31 -6 -4 -10 -2 -10 3 0 14 -72 30 -95 22 -20 -7 -20 -7 0 -12 13 -4 8 -6
-14 -7 -29 -1 -32 1 -21 14 8 9 9 15 2 15 -6 0 -14 -5 -17 -10 -4 -6 -11 -7
-17 -4 -6 4 -51 8 -99 10 -105 3 -327 36 -474 70 -11 3 -30 7 -42 10 -12 2
-34 9 -48 14 -18 7 -24 7 -20 0 4 -6 -13 -1 -37 10 -85 39 -312 119 -321 113
-6 -4 -7 -1 -2 7 6 10 1 12 -19 8 -18 -4 -26 -1 -26 8 0 13 -7 16 -26 13 -4 0
-10 3 -13 8 -3 5 -24 17 -47 25 -22 9 -56 26 -75 37 -19 11 -54 31 -77 43
l-44 23 -18 -23 -19 -23 -11 21 c-9 17 -8 21 2 19 24 -3 38 1 38 11 0 6 -9 10
-20 10 -11 0 -20 3 -20 8 0 4 -14 15 -31 25 l-31 17 4 -24 c3 -14 1 -23 -3
-20 -5 3 -9 15 -9 27 0 17 -3 19 -9 8 -7 -11 -10 -9 -16 7 -3 12 -21 37 -38
55 -18 19 -33 38 -34 43 -1 5 -14 43 -28 84 -53 148 -69 271 -38 288 10 6 14
16 10 26 -4 10 -3 15 3 11 6 -3 10 2 10 12 0 15 2 16 10 3 5 -8 10 -10 10 -4
0 6 -3 14 -7 17 -3 4 -7 38 -8 77 -2 68 6 88 19 53 6 -14 9 -15 16 -4 4 8 6
21 3 30 -4 14 -3 14 5 1 6 -8 8 -18 6 -22 -3 -4 -2 -8 1 -8 3 0 14 18 24 40
10 22 21 37 24 33 4 -3 7 1 7 10 0 10 5 16 11 15 6 -2 14 3 17 11 3 11 -2 12
-22 7 -24 -6 -27 -4 -22 12 8 25 -3 54 -17 45 -6 -3 -7 -1 -3 5 4 7 14 12 22
12 13 0 16 -5 18 -40 1 -17 36 -27 36 -11 0 6 -8 7 -17 4 -16 -6 -16 -5 -3 11
8 10 15 25 16 34 2 8 9 19 16 23 9 6 9 9 1 9 -6 0 -15 -5 -18 -10 -7 -12 -35
-14 -35 -2 0 9 60 33 70 27 4 -2 14 12 24 31 13 28 14 39 5 50 -9 11 -8 14 1
14 8 0 10 3 7 7 -4 3 -2 12 5 20 6 8 12 34 13 59 1 39 -1 44 -18 38 -13 -4
-17 -2 -13 5 4 6 14 11 22 11 11 0 14 16 15 68 1 37 0 77 -1 90 -1 13 6 34 14
48 9 13 12 24 7 24 -5 0 -8 13 -7 29 l1 29 37 -31 c20 -18 37 -37 37 -44 1 -7
9 -17 19 -22 9 -6 13 -11 9 -11 -8 0 38 -63 73 -101 8 -8 26 -29 39 -45 73
-88 210 -230 317 -328 160 -147 454 -395 454 -382 0 3 10 -5 23 -17 29 -28 68
-58 197 -154 58 -42 107 -80 110 -84 3 -3 15 -9 28 -13 21 -7 27 0 23 29 -1 6
5 2 12 -7 8 -10 19 -18 26 -18 6 0 11 -7 11 -16 0 -14 -3 -14 -15 -4 -9 7 -19
10 -23 6 -4 -4 2 -14 13 -22 17 -13 21 -13 31 1 6 8 14 12 18 8 4 -4 11 -1 16
7 7 11 9 6 6 -16 -2 -20 1 -31 10 -31 7 0 11 4 8 9 -3 4 2 8 10 8 21 0 20 -17
-1 -28 -16 -9 -16 -11 0 -27 9 -9 17 -12 17 -6 0 6 5 11 11 11 6 0 9 -7 5 -15
-3 -8 -1 -15 4 -15 6 0 10 8 10 18 0 14 2 14 9 3 12 -18 45 -6 38 13 -4 9 1
17 11 19 10 3 5 5 -10 6 -16 0 -28 -3 -28 -9 0 -5 -8 -10 -17 -10 -14 0 -15 2
-4 9 8 5 10 14 6 22 -6 9 -4 11 8 6 11 -4 20 1 27 14 6 11 16 17 22 13 7 -5 7
-8 -1 -13 -6 -4 -3 -11 9 -19 12 -7 20 -8 20 -2 0 5 7 10 15 10 19 0 19 16 0
24 -8 3 -14 0 -12 -6 1 -6 -5 -13 -13 -16 -11 -4 -10 1 4 23 l18 28 -31 -6
c-27 -6 -30 -5 -18 7 7 8 22 15 32 17 31 6 30 29 -2 29 -22 0 -25 -2 -13 -10
21 -13 3 -13 -22 1 -18 10 -20 9 -15 -5 4 -10 3 -15 -3 -11 -20 12 -10 35 15
35 14 0 25 5 25 10 0 6 -7 10 -15 10 -8 0 -15 6 -15 13 -1 17 -48 49 -62 41
-7 -5 -8 -3 -3 6 6 10 4 12 -8 7 -10 -4 -14 -2 -12 6 3 7 -19 27 -48 45 -28
18 -70 48 -92 67 -51 44 -45 40 -143 110 -45 32 -82 61 -82 65 0 3 -14 14 -32
25 -18 10 -44 29 -58 41 -14 12 -59 49 -100 83 -128 106 -200 171 -335 306
-137 138 -246 257 -303 333 -13 18 -39 48 -58 69 -40 43 -124 166 -141 205
-17 39 -40 35 -34 -4 0 -5 -4 -8 -10 -8 -6 0 -9 6 -6 14 7 18 -17 28 -32 13
-9 -9 -14 -8 -21 3 -12 19 4 35 35 35 19 1 22 -2 13 -12 -7 -9 -7 -13 1 -13
12 0 13 5 13 58 0 18 5 35 9 38 5 3 6 11 2 17 -4 7 -9 20 -10 30 -5 28 -55 97
-66 90 -5 -3 -7 -1 -4 5 4 5 -11 41 -33 80 -22 38 -40 78 -40 90 0 35 -10 51
-28 45 -10 -4 -6 3 8 15 14 12 20 21 14 22 -11 0 -29 54 -25 74 1 4 -3 14 -9
21 -5 7 -20 41 -31 76 -11 35 -31 83 -44 106 -13 23 -19 43 -15 45 7 3 -18 98
-29 108 -4 3 -6 10 -6 15 -1 31 -29 162 -36 171 -5 6 -5 15 -1 20 4 5 3 6 -2
2 -5 -4 -16 -2 -24 5 -13 9 -14 9 -8 0 5 -9 0 -13 -13 -13 -12 0 -21 -5 -21
-11 0 -5 5 -7 12 -3 7 5 8 3 3 -5 -5 -9 -10 -10 -18 -2 -7 7 -6 16 6 29 9 10
14 21 11 25 -9 9 6 48 17 42 9 -6 14 10 9 30 -1 6 -3 15 -3 22 0 7 -3 10 -7 8
-4 -2 -13 12 -20 31 -10 25 -20 34 -35 33 -35 -2 -46 1 -40 11 3 6 -1 7 -9 4
-9 -3 -16 -2 -16 3 0 6 -35 10 -79 10 -43 0 -82 2 -87 5 -5 2 -31 1 -58 -3z
m-11 -19 c-3 -5 -12 -10 -18 -10 -7 0 -6 4 3 10 19 12 23 12 15 0z m42 4 c-3
-3 -12 -4 -19 -1 -8 3 -5 6 6 6 11 1 17 -2 13 -5z m61 -7 c-7 -8 -19 -14 -26
-14 -11 0 -10 4 4 14 10 7 22 13 26 13 5 0 3 -6 -4 -13z m-73 -17 c-3 -5 -12
-10 -18 -10 -7 0 -6 4 3 10 19 12 23 12 15 0z m320 -90 c3 -5 2 -10 -4 -10 -5
0 -13 5 -16 10 -3 6 -2 10 4 10 5 0 13 -4 16 -10z m-315 -110 c0 -5 -5 -10
-11 -10 -5 0 -7 5 -4 10 3 6 8 10 11 10 2 0 4 -4 4 -10z m344 -34 c-12 -50
-24 -23 -15 39 0 5 5 5 12 -2 5 -5 7 -22 3 -37z m-155 20 c9 -11 9 -16 0 -22
-8 -4 -9 -3 -5 5 4 7 -2 15 -16 20 -15 7 -17 10 -7 10 9 1 22 -5 28 -13z m-30
-36 c-7 -5 -11 -56 -12 -141 -2 -129 -1 -138 32 -229 66 -188 110 -283 209
-460 14 -25 49 -79 79 -121 47 -68 51 -78 37 -90 -20 -17 -61 5 -129 69 -132
124 -270 307 -350 463 -55 107 -121 288 -129 351 -1 10 -5 20 -8 23 -3 3 -2
20 1 37 6 28 13 34 62 50 31 10 85 34 120 52 59 31 65 33 82 18 12 -10 14 -18
6 -22z m-118 13 c9 -9 7 -11 -5 -9 -9 1 -21 7 -27 13 -9 9 -7 11 5 9 9 -1 21
-7 27 -13z m-351 -18 c0 -14 -4 -25 -10 -25 -8 0 -8 23 -1 48 4 12 11 -3 11
-23z m300 9 c0 -8 -19 -13 -24 -6 -3 5 1 9 9 9 8 0 15 -2 15 -3z m-250 -18 c0
-2 -7 -7 -16 -10 -8 -3 -12 -2 -9 4 6 10 25 14 25 6z m600 -10 c0 -3 -4 -8
-10 -11 -5 -3 -10 -1 -10 4 0 6 5 11 10 11 6 0 10 -2 10 -4z m-628 -23 c-6 -2
-9 -10 -6 -15 4 -7 2 -8 -4 -4 -18 11 -14 26 6 25 10 0 12 -3 4 -6z m151 -63
c3 -11 2 -18 -3 -15 -4 3 -10 14 -13 25 -3 11 -2 18 3 15 4 -3 10 -14 13 -25z
m1614 -386 c-3 -3 -12 -4 -19 -1 -8 3 -5 6 6 6 11 1 17 -2 13 -5z m-257 -314
c0 -5 -8 -10 -17 -10 -15 0 -16 2 -3 10 19 12 20 12 20 0z m-26 -29 c8 -13
-13 -18 -43 -13 -23 5 -24 6 -6 13 28 11 43 11 49 0z m-370 -36 c3 -9 0 -15
-9 -15 -9 0 -12 6 -9 15 4 8 7 15 9 15 2 0 5 -7 9 -15z m-194 -157 c0 -6 -3
-8 -7 -5 -3 4 -13 1 -22 -6 -14 -11 -14 -10 -2 6 15 20 31 22 31 5z m-100 -18
c0 -5 -4 -10 -10 -10 -5 0 -10 5 -10 10 0 6 5 10 10 10 6 0 10 -4 10 -10z m30
-20 c0 -5 -2 -10 -4 -10 -3 0 -8 5 -11 10 -3 6 -1 10 4 10 6 0 11 -4 11 -10z
m60 -375 c0 -7 -30 -13 -34 -7 -3 4 4 9 15 9 10 1 19 0 19 -2z m-370 -45 c0
-5 -4 -10 -10 -10 -5 0 -10 5 -10 10 0 6 5 10 10 10 6 0 10 -4 10 -10z m332
-252 c-8 -8 -9 -4 -5 13 4 13 8 18 11 10 2 -7 -1 -18 -6 -23z m-17 -118 c3 -5
1 -10 -4 -10 -6 0 -11 5 -11 10 0 6 2 10 4 10 3 0 8 -4 11 -10z m-153 -112
c-15 -15 -16 -32 -2 -23 7 4 10 -11 8 -44 -2 -31 -7 -46 -12 -41 -12 12 -17
40 -7 40 4 0 8 7 8 15 0 8 -4 15 -9 15 -4 0 -8 11 -8 25 0 17 6 25 17 25 13 0
14 -3 5 -12z m48 -8 c0 -5 -4 -10 -10 -10 -5 0 -10 5 -10 10 0 6 5 10 10 10 6
0 10 -4 10 -10z m5 -50 c3 -5 1 -10 -4 -10 -6 0 -11 5 -11 10 0 6 2 10 4 10 3
0 8 -4 11 -10z m2265 -290 c0 -5 -2 -10 -4 -10 -3 0 -8 5 -11 10 -3 6 -1 10 4
10 6 0 11 -4 11 -10z m37 -55 c0 -8 -4 -12 -9 -9 -5 3 -6 10 -3 15 9 13 12 11
12 -6z m55 -99 c10 6 10 4 -1 -9 -8 -10 -15 -16 -16 -15 -1 2 -8 14 -14 28
-11 23 -11 23 3 6 9 -11 20 -15 28 -10z m209 -549 c-10 -9 -11 -8 -5 6 3 10 9
15 12 12 3 -3 0 -11 -7 -18z m201 -142 c0 -5 -5 -10 -12 -11 -7 -2 -6 -1 1 3
8 4 7 8 -2 15 -11 8 -11 9 -1 6 8 -2 14 -8 14 -13z m-2562 -5 c12 -8 11 -10
-7 -10 -13 0 -23 5 -23 10 0 13 11 13 30 0z"/>
<path d="M191 3799 c0 -15 5 -32 12 -38 10 -8 14 -7 14 4 0 8 -4 15 -8 15 -4
0 -10 10 -12 23 -4 20 -4 19 -6 -4z"/>
<path d="M1290 2870 c0 -5 5 -10 11 -10 5 0 7 5 4 10 -3 6 -8 10 -11 10 -2 0
-4 -4 -4 -10z"/>
<path d="M1616 2765 c-9 -24 5 -41 16 -20 7 11 7 20 0 27 -6 6 -12 3 -16 -7z"/>
<path d="M1180 2640 c-9 -6 -10 -10 -3 -10 6 0 15 5 18 10 8 12 4 12 -15 0z"/>
<path d="M2745 2620 c3 -5 8 -10 11 -10 2 0 4 5 4 10 0 6 -5 10 -11 10 -5 0
-7 -4 -4 -10z"/>
<path d="M1101 1764 c0 -11 3 -14 6 -6 3 7 2 16 -1 19 -3 4 -6 -2 -5 -13z"/>
<path d="M2830 1125 c0 -10 5 -13 12 -9 8 5 9 2 5 -9 -4 -11 -1 -17 9 -17 11
0 12 4 4 19 -14 27 -30 35 -30 16z"/>
<path d="M2600 1040 c0 -5 5 -10 10 -10 6 0 10 5 10 10 0 6 -4 10 -10 10 -5 0
-10 -4 -10 -10z"/>
<path d="M2855 1029 c-4 -6 -5 -12 -2 -15 2 -3 7 2 10 11 7 17 1 20 -8 4z"/>
<path d="M705 980 c-3 -5 -1 -10 4 -10 6 0 11 5 11 10 0 6 -2 10 -4 10 -3 0
-8 -4 -11 -10z"/>
<path d="M826 772 c-3 -5 1 -17 8 -27 7 -10 15 -14 19 -9 3 5 -1 17 -8 27 -7
10 -16 14 -19 9z"/>
<path d="M2720 500 c0 -5 7 -10 16 -10 8 0 12 5 9 10 -3 6 -10 10 -16 10 -5 0
-9 -4 -9 -10z"/>
<path d="M2665 470 c-17 -6 -15 -8 10 -13 35 -6 40 -4 23 10 -7 6 -22 7 -33 3z"/>
<path d="M3815 429 c-4 -6 -5 -12 -2 -15 2 -3 7 2 10 11 7 17 1 20 -8 4z"/>
<path d="M1430 400 c0 -5 5 -10 11 -10 5 0 7 5 4 10 -3 6 -8 10 -11 10 -2 0
-4 -4 -4 -10z"/>
<path d="M2006 262 c-3 -5 1 -9 9 -9 8 0 15 4 15 9 0 4 -4 8 -9 8 -6 0 -12 -4
-15 -8z"/>
<path d="M2220 220 c0 -5 5 -10 10 -10 6 0 10 5 10 10 0 6 -4 10 -10 10 -5 0
-10 -4 -10 -10z"/>
</g>
</svg>
